{"title":"Thor-AC3-XviD-BRRip 2011","uid":6631306,"size":1470680840,"categoryP":"video","categoryS":"movies","magnet":"?xt=urn:btih:fac35b01420c7d0ffb102db09b201ee656e645fa&amp;dn=Thor-AC3-XviD-BRRip+2011&amp;tr=udp%3A%2F%2Ftracker.openbittorrent.com%3A80&amp;tr=udp%3A%2F%2Fopen.demonii.com%3A1337&amp;tr=udp%3A%2F%2Ftracker.coppersurfer.tk%3A6969&amp;tr=udp%3A%2F%2Fexodus.desync.com%3A6969","seeders":0,"leechers":1,"uploader":"FatFreddy31","files":-1,"time":1314379185,"description":"[img]http://img16.imageshack.us/img16/8712/thorij.jpg[/img]\n &lt;a href=&quot;\nhttp://www.imdb.com/title/tt0800369/&quot; rel=&quot;nofollow&quot; target=&quot;_NEW&quot;&gt;\nhttp://www.imdb.com/title/tt0800369/&lt;/a&gt;\n &lt;a href=&quot;\nhttp://www.moviemeter.nl/film/65932&quot; rel=&quot;nofollow&quot; target=&quot;_NEW&quot;&gt;\nhttp://www.moviemeter.nl/film/65932&lt;/a&gt;\n\nSubs: Dutch, English.\n\nSource: Thor.2011.720p.BluRay.x264-Felony \n\nGeneral\nComplete name                    : Thor-AC3-XviD-BRRip 2011\\Thor-AC3-XviD-BRRip 2011.avi\nFormat                           : AVI\nFormat/Info                      : Audio Video Interleave\nFile size                        : 1.37 GiB\nDuration                         : 1h 54mn\nOverall bit rate                 : 1 706 Kbps\nWriting application              : VirtualDubMod 1.5.4.1 (build 2178/release)\nWriting library                  : VirtualDubMod build 2178/release\n\nVideo\nID                               : 0\nFormat                           : MPEG-4 Visual\nFormat profile                   : Advanced Simple@L5\nFormat settings, BVOP            : Yes\nFormat settings, QPel            : No\nFormat settings, GMC             : No warppoints\nFormat settings, Matrix          : Default (H.263)\nCodec ID                         : XVID\nCodec ID/Hint                    : XviD\nDuration                         : 1h 54mn\nBit rate                         : 1 249 Kbps\nWidth                            : 640 pixels\nHeight                           : 272 pixels\nDisplay aspect ratio             : 2.35:1\nFrame rate                       : 23.976 fps\nResolution                       : 8 bits\nColorimetry                      : 4:2:0\nScan type                        : Progressive\nBits/(Pixel*Frame)               : 0.299\nStream size                      : 1.00 GiB (73%)\nWriting library                  : XviD 1.2.1 (UTC 2008-12-04)\n\nAudio\nID                               : 1\nFormat                           : AC-3\nFormat/Info                      : Audio Coding 3\nCodec ID                         : 2000\nDuration                         : 1h 54mn\nBit rate mode                    : Constant\nBit rate                         : 448 Kbps\nChannel(s)                       : 6 channels\nChannel positions                : Front: L C R, Surround: L R, LFE\nSampling rate                    : 48.0 KHz\nStream size                      : 368 MiB (26%)\nAlignment                        : Split accross interleaves\nInterleave, duration             : 42 ms (1.00 video frame)\nInterleave, preload duration     : 500 ms\n\n[img]http://img835.imageshack.us/img835/8317/thorac3xvidbrrip2011scr.jpg[/img]","torrent":{"xt":"urn:btih:fac35b01420c7d0ffb102db09b201ee656e645fa","amp;dn":"Thor-AC3-XviD-BRRip+2011","amp;tr":["udp%3A%2F%2Ftracker.openbittorrent.com%3A80","udp%3A%2F%2Fopen.demonii.com%3A1337","udp%3A%2F%2Ftracker.coppersurfer.tk%3A6969","udp%3A%2F%2Fexodus.desync.com%3A6969"],"infoHash":"fac35b01420c7d0ffb102db09b201ee656e645fa","infoHashBuffer":{"type":"Buffer","data":[250,195,91,1,66,12,125,15,251,16,45,176,155,32,30,230,86,230,69,250]},"announce":[],"urlList":[]}}